<svg width="30" height="31" viewBox="0 0 30 31" fill="none" xmlns="http://www.w3.org/2000/svg">
<g filter="url(#filter0_d_228_344)">
<rect y="0.475586" width="28" height="28" rx="6" fill="#8CD4CB"/>
<rect x="1.5" y="1.97559" width="25" height="25" rx="4.5" stroke="#33322E" stroke-width="3"/>
</g>
<path d="M6.36317 13.1506C5.55939 12.9501 4.7452 13.4391 4.54463 14.2428C4.34405 15.0466 4.83305 15.8608 5.63683 16.0614L6.36317 13.1506ZM12.1587 19.4756L10.7804 20.0674C11.031 20.651 11.622 21.0135 12.2557 20.9724C12.8895 20.9314 13.4288 20.4956 13.6019 19.8845L12.1587 19.4756ZM26.3261 6.93972C27.1347 6.75965 27.6442 5.95815 27.4641 5.14953C27.2841 4.34091 26.4826 3.83138 25.6739 4.01145L26.3261 6.93972ZM5.63683 16.0614C6.02764 16.1589 7.12299 16.6266 8.2778 17.4182C9.43988 18.2148 10.3891 19.1559 10.7804 20.0674L13.5371 18.8838C12.8109 17.1926 11.3016 15.8538 9.97406 14.9438C8.63927 14.0288 7.21399 13.363 6.36317 13.1506L5.63683 16.0614ZM13.6019 19.8845C14.1359 18 15.4948 15.1341 17.6727 12.5395C19.8445 9.95233 22.7417 7.73794 26.3261 6.93972L25.6739 4.01145C21.2583 4.99478 17.8275 7.689 15.3749 10.6107C12.9285 13.5251 11.3667 16.7685 10.7155 19.0667L13.6019 19.8845Z" fill="#F9F3E5"/>
<defs>
<filter id="filter0_d_228_344" x="0" y="0.475586" width="30" height="30" filterUnits="userSpaceOnUse" color-interpolation-filters="sRGB">
<feFlood flood-opacity="0" result="BackgroundImageFix"/>
<feColorMatrix in="SourceAlpha" type="matrix" values="0 0 0 0 0 0 0 0 0 0 0 0 0 0 0 0 0 0 127 0" result="hardAlpha"/>
<feOffset dx="2" dy="2"/>
<feColorMatrix type="matrix" values="0 0 0 0 0.2 0 0 0 0 0.196078 0 0 0 0 0.180392 0 0 0 1 0"/>
<feBlend mode="normal" in2="BackgroundImageFix" result="effect1_dropShadow_228_344"/>
<feBlend mode="normal" in="SourceGraphic" in2="effect1_dropShadow_228_344" result="shape"/>
</filter>
</defs>
</svg>
